<svg xmlns="http://www.w3.org/2000/svg" width="95.437" height="95.438" viewBox="0 0 95.437 95.438">
	<path d="M69.35 0H26.087c-4.212 0-7.635 3.422-7.635 7.635v80.168c0 4.213 3.424 7.635 7.636 7.635H69.35c4.215 0 7.637-3.422 7.637-7.635V7.635C76.987 3.422 73.565 0 69.35 0zM40.72 6.973c0-1.043.84-1.883 1.885-1.883h10.23c1.044 0 1.884.84 1.884 1.883v.05c0 1.044-.84 1.884-1.886 1.884h-10.23c-1.044 0-1.884-.84-1.884-1.883v-.05zm7 85.6c-2.278 0-4.136-1.856-4.136-4.135s1.857-4.135 4.135-4.135 4.135 1.854 4.135 4.135c0 2.28-1.858 4.136-4.136 4.136zM70.623 80.17c0 .7-.57 1.27-1.272 1.27H26.086c-.7 0-1.272-.57-1.272-1.27V15.27c0-.7.573-1.273 1.272-1.273H69.35c.702 0 1.273.572 1.273 1.273v64.898z"/>
	<path d="M64.274 72.533h-33.11c-.695 0-1.26.563-1.26 1.26v.025c0 .695.564 1.26 1.26 1.26h33.11c.696 0 1.26-.563 1.26-1.26v-.024c0-.696-.564-1.26-1.26-1.26zM64.274 64.898h-33.11c-.695 0-1.26.563-1.26 1.26v.025c0 .695.564 1.26 1.26 1.26h33.11c.696 0 1.26-.563 1.26-1.26v-.025c0-.697-.564-1.26-1.26-1.26zM62.99 36.903c-1.656 0-3.06 1.066-3.584 2.545h-3.523c-.207-1.332-.73-2.555-1.492-3.6l2.493-2.49c.506.242 1.06.383 1.635.383 1.02 0 1.98-.397 2.7-1.118 1.486-1.488 1.486-3.908 0-5.396-1.44-1.443-3.958-1.443-5.4 0-1.17 1.17-1.404 2.912-.73 4.33l-2.495 2.494c-1.043-.764-2.268-1.285-3.598-1.492v-3.523c1.48-.527 2.545-1.928 2.545-3.584 0-2.104-1.713-3.815-3.818-3.815-2.104 0-3.817 1.71-3.817 3.816 0 1.657 1.067 3.058 2.545 3.585v3.523c-1.33.207-2.555.73-3.6 1.492l-2.49-2.494c.67-1.418.437-3.16-.734-4.33-1.443-1.443-3.96-1.443-5.4 0-1.487 1.488-1.487 3.908 0 5.396.72.72 1.68 1.12 2.7 1.12.575 0 1.13-.142 1.635-.384l2.493 2.49c-.764 1.045-1.285 2.268-1.493 3.6h-3.522c-.527-1.48-1.928-2.545-3.585-2.545-2.104 0-3.816 1.713-3.816 3.818s1.712 3.817 3.816 3.817c1.657 0 3.058-1.066 3.585-2.545h3.522c.208 1.332.73 2.555 1.493 3.598l-2.505 2.506c-1.413-.64-3.195-.404-4.32.723-1.49 1.487-1.49 3.907 0 5.395.72.723 1.68 1.12 2.7 1.12 1.015 0 1.975-.397 2.698-1.12 1.17-1.17 1.404-2.912.733-4.332l2.49-2.492c1.045.765 2.27 1.286 3.6 1.493v3.523c-1.478.526-2.545 1.928-2.545 3.584 0 2.104 1.713 3.815 3.817 3.815 2.105 0 3.818-1.71 3.818-3.815 0-1.656-1.066-3.058-2.545-3.584v-3.523c1.33-.207 2.555-.73 3.598-1.492l2.494 2.493c-.673 1.42-.438 3.162.732 4.332.724.723 1.683 1.12 2.698 1.12 1.02 0 1.98-.397 2.7-1.12 1.486-1.488 1.486-3.908 0-5.396-1.128-1.128-2.91-1.36-4.32-.724L54.39 45.59c.764-1.043 1.285-2.266 1.492-3.598h3.523c.525 1.48 1.928 2.545 3.584 2.545 2.104 0 3.815-1.713 3.815-3.816 0-2.105-1.71-3.817-3.815-3.817zm-5.374-7.88c.242-.24.562-.372.9-.372.34 0 .657.134.897.374.497.494.497 1.303 0 1.8-.48.48-1.316.48-1.8 0-.492-.498-.492-1.306.003-1.8zm-19.793 1.8c-.483.48-1.32.48-1.8 0-.496-.496-.496-1.305 0-1.8.24-.24.56-.372.9-.372.337 0 .657.134.9.374.495.494.495 1.302 0 1.8zm-5.375 11.17c-.702 0-1.272-.57-1.272-1.272 0-.702.57-1.272 1.272-1.272s1.272.57 1.272 1.273c0 .702-.57 1.272-1.272 1.272zm5.375 10.423c-.483.48-1.32.48-1.8 0-.496-.494-.496-1.303 0-1.8.24-.237.56-.372.9-.372.337 0 .657.135.9.373.495.496.495 1.305 0 1.8zm19.793-1.8c.242-.237.562-.372.9-.372.34 0 .657.135.897.373.497.496.497 1.305 0 1.8-.48.478-1.316.478-1.8 0-.492-.495-.492-1.304.003-1.8zm-9.897-26.44c.7 0 1.272.572 1.272 1.273s-.57 1.273-1.273 1.273c-.702 0-1.273-.572-1.273-1.273 0-.7.57-1.274 1.272-1.274zm0 33.086c-.702 0-1.273-.57-1.273-1.27 0-.704.57-1.273 1.272-1.273.7 0 1.272.568 1.272 1.27 0 .7-.57 1.272-1.273 1.272zm0-10.816c-3.157 0-5.728-2.568-5.728-5.725 0-3.157 2.57-5.728 5.727-5.728 3.157 0 5.726 2.57 5.726 5.73 0 3.155-2.57 5.724-5.727 5.724zm15.27-4.454c-.702 0-1.27-.57-1.27-1.27 0-.704.568-1.274 1.27-1.274s1.27.57 1.27 1.273c0 .702-.568 1.272-1.27 1.272z"/>
</svg>