<svg viewBox="0 0 95 95" xmlns="http://www.w3.org/2000/svg" fill-rule="evenodd" clip-rule="evenodd" stroke-linejoin="round" stroke-miterlimit="1.414"><g fill="#191f28" fill-rule="nonzero">
  <path d="M56.66 33.183c-5.034 0-8.23 5.44-8.985 5.44-.66 0-3.724-5.44-8.986-5.44-5.118 0-9.297 4.09-9.57 9.045-.155 2.798.776 4.928 2.087 6.857 2.62 3.854 14.076 13.132 16.485 13.132 2.46 0 13.813-9.244 16.45-13.132 1.315-1.938 2.242-4.058 2.088-6.857-.274-4.954-4.452-9.046-9.57-9.046"/>
  <path d="M70.996 0H24.353c-3.268 0-5.928 2.578-5.928 5.746v83.908c0 3.168 2.66 5.746 5.928 5.746h46.644c3.268 0 5.928-2.578 5.928-5.746V5.746c0-3.168-2.66-5.746-5.93-5.746zM41.28 5.02h12.79c.98 0 1.774.768 1.774 1.718s-.794 1.72-1.773 1.72H41.28c-.98 0-1.774-.77-1.774-1.72s.793-1.72 1.773-1.72zm6.395 86.084c-1.856 0-3.362-1.46-3.362-3.26 0-1.798 1.506-3.257 3.362-3.257 1.857 0 3.36 1.46 3.36 3.258 0 1.8-1.503 3.26-3.36 3.26zM70.75 78.19c0 1.764-1.49 3.208-3.31 3.208H27.91c-1.82 0-3.31-1.444-3.31-3.21V14.83c0-1.764 1.49-3.208 3.31-3.208H67.44c1.82 0 3.31 1.444 3.31 3.21v63.36z"/>
</g></svg>