<svg xmlns="http://www.w3.org/2000/svg" width="95.44" height="95.439" viewBox="0 0 95.44 95.439">
	<path d="M69.352 0H26.087c-4.212 0-7.635 3.423-7.635 7.636v80.168c0 4.213 3.423 7.636 7.635 7.636h43.265c4.214 0 7.636-3.423 7.636-7.636V7.636C76.988 3.423 73.566 0 69.352 0zm-28.63 6.975c0-1.044.84-1.884 1.883-1.884h10.23c1.043 0 1.885.84 1.885 1.885v.05c0 1.044-.842 1.884-1.885 1.884h-10.23c-1.044 0-1.884-.84-1.884-1.885v-.05zm6.998 85.6c-2.278 0-4.136-1.856-4.136-4.137 0-2.276 1.857-4.135 4.136-4.135 2.277 0 4.136 1.856 4.136 4.135 0 2.28-1.86 4.138-4.136 4.138zM70.625 80.17c0 .697-.573 1.27-1.272 1.27H26.087c-.7 0-1.272-.573-1.272-1.27v-64.9c0-.7.572-1.27 1.272-1.27h43.265c.7 0 1.272.57 1.272 1.27v64.9z"/>
	<path d="M64.276 64.9h-33.11c-.697 0-1.26.562-1.26 1.258v.025c0 .696.562 1.26 1.26 1.26h33.11c.695 0 1.26-.562 1.26-1.26v-.025c0-.695-.565-1.258-1.26-1.258zM64.276 72.533h-33.11c-.697 0-1.26.564-1.26 1.26v.027c0 .694.562 1.26 1.26 1.26h33.11c.695 0 1.26-.564 1.26-1.26v-.025c0-.696-.565-1.262-1.26-1.262zM64.276 57.264h-33.11c-.697 0-1.26.564-1.26 1.26v.025c0 .694.562 1.26 1.26 1.26h33.11c.695 0 1.26-.565 1.26-1.26v-.026c0-.696-.565-1.26-1.26-1.26zM45.333 45.81c1.862 0 3.617-.456 5.175-1.246l5.592 5.593c.498.496 1.147.746 1.8.746.65 0 1.303-.25 1.8-.746.994-.994.994-2.604 0-3.6l-5.27-5.27c1.472-1.926 2.355-4.322 2.355-6.93 0-6.314-5.137-11.452-11.452-11.452S33.88 28.043 33.88 34.358 39.02 45.81 45.333 45.81zm0-19.086c4.21 0 7.636 3.425 7.636 7.635s-3.427 7.635-7.637 7.635c-4.21 0-7.636-3.426-7.636-7.636s3.426-7.636 7.636-7.636z"/>
</svg>