<svg xmlns="http://www.w3.org/2000/svg" width="106.048" height="106.048" viewBox="0 0 106.048 106.048"><path d="M84.838 0h-63.63C9.544 0 0 9.543 0 21.21v63.628c0 11.666 9.543 21.21 21.21 21.21h63.627c11.667 0 21.21-9.544 21.21-21.21v-63.63C106.047 9.544 96.505 0 84.837 0zm7.954 91.477H13.256V44.255L53.03 14.56 92.79 44.256v47.222zM53.03 62.21l34.728 26.88h-69.47l34.74-26.88zM42.024 35.75c-1.175 2.14-1.752 4.453-1.752 6.928 0 2.26.512 4.35 1.543 6.268 1.033 1.914 2.602 3.37 4.728 4.347 2.11.984 4.625 1.47 7.542 1.47 2.998 0 5.55-.58 7.637-1.74 1.823-1.02 3.18-2.422 4.06-4.214h-2.81c-.933 1.18-2.15 2.05-3.672 2.64-1.52.588-3.334.88-5.43.88-2.187 0-4.128-.352-5.83-1.045-1.695-.705-3.01-1.812-3.96-3.346-.927-1.523-1.406-3.22-1.406-5.075 0-1.913.42-3.76 1.258-5.52.852-1.77 2.1-3.148 3.76-4.11 1.664-.985 3.684-1.472 6.078-1.472 2.812 0 5.007.735 6.58 2.183 1.57 1.47 2.353 3.283 2.353 5.448 0 1.214-.285 2.38-.84 3.508-.554 1.12-1.278 2.032-2.18 2.695-.668.52-1.21.77-1.646.77-.135 0-.26-.055-.357-.166-.108-.11-.15-.27-.15-.496 0-.176.063-.557.187-1.163l2-9.485h-3.49l-.337 1.47c-.75-1.203-1.9-1.804-3.475-1.804-2.203 0-4.008 1.047-5.42 3.13-1.164 1.708-1.742 3.595-1.742 5.673 0 1.665.487 3.012 1.447 4.03.963 1.003 2.172 1.51 3.643 1.51 1.356 0 2.56-.507 3.6-1.51.118.5.372.87.74 1.13.372.26.92.38 1.656.38 2.723 0 4.938-1.148 6.68-3.435 1.387-1.825 2.08-3.855 2.08-6.098 0-1.882-.466-3.627-1.366-5.217-.922-1.598-2.237-2.817-3.967-3.687-1.73-.857-3.702-1.292-5.924-1.292-2.62 0-4.947.538-6.98 1.615-2.062 1.06-3.67 2.666-4.838 4.8zm12.624 7.332c-.332 1.033-.74 1.822-1.207 2.358-.326.373-.663.652-.997.828-.44.25-.906.37-1.41.37-.674 0-1.23-.268-1.69-.794-.45-.53-.674-1.346-.674-2.465 0-.84.158-1.805.486-2.893.33-1.085.81-1.913 1.453-2.506.647-.59 1.347-.88 2.1-.88.708 0 1.287.27 1.753.806.467.53.694 1.294.694 2.29 0 .897-.17 1.863-.508 2.886zm-9.246 21.79L16.06 87.58v-42.39l29.344 19.68zm15.242 0l29.34-19.68v42.39l-29.34-22.71z" fill="#010002"/></svg>