<svg xmlns="http://www.w3.org/2000/svg" viewBox="0 0 508.52 508.52"><path d="M413.172 0H95.347C42.684 0 0 42.684 0 95.347v317.825c0 52.664 42.684 95.347 95.347 95.347h317.825c52.664 0 95.347-42.685 95.347-95.348V95.347C508.52 42.684 465.835 0 413.17 0zM190.695 377.417H127.13V154.94h63.565v222.477zm-29.812-236.112c-16.463 0-29.78-13.35-29.78-29.812s13.35-29.812 29.78-29.812c16.463.033 29.812 13.38 29.812 29.813 0 16.463-13.35 29.812-29.812 29.812zm252.29 236.112h-63.566V239.862c0-16.114-4.608-27.396-24.41-27.396-32.83 0-39.155 27.396-39.155 27.396v137.555h-63.565V154.94h63.565v21.262c9.09-6.96 31.782-21.23 63.565-21.23 20.595 0 63.565 12.33 63.565 86.83v135.615z" fill="#010002"/></svg>