<svg viewBox="0 0 300 300" xmlns="http://www.w3.org/2000/svg" fill-rule="evenodd" clip-rule="evenodd" stroke-linejoin="round" stroke-miterlimit="1.414"><path d="M44.337 44.245C17.307 71.215.575 108.45.575 149.575c0 41.117 16.733 78.363 43.762 105.33l.033.033c27.046 26.952 64.395 43.637 105.63 43.637 41.243 0 78.586-16.685 105.632-43.637l.03-.032c27.033-26.968 43.762-64.214 43.762-105.33 0-41.127-16.73-78.362-43.76-105.33l-.032-.033C228.586 17.26 191.242.575 150.002.575 108.764.575 71.415 17.26 44.37 44.213l-.033.032zm-27.97 105.33c0-36.81 14.95-70.132 39.12-94.243 24.18-24.094 57.606-39.01 94.514-39.01 36.914 0 70.334 14.907 94.514 39.01 24.17 24.11 39.116 57.434 39.116 94.243 0 18.758-3.885 36.61-10.893 52.804l-9.783-6.917c5.79-14.162 8.99-29.65 8.99-45.888C271.944 82.42 217.35 27.978 150 27.978c-67.35 0-121.944 54.44-121.944 121.597S82.65 271.173 150 271.173c37.357 0 70.785-16.755 93.148-43.134-18.338-12.83-36.652-25.644-54.984-38.48 11.427-9.985 18.643-24.646 18.643-40.985 0-30.085-24.463-54.48-54.635-54.48-30.18 0-54.643 24.395-54.643 54.48 0 30.095 24.46 54.48 54.642 54.48 10.518 0 20.34-2.97 28.673-8.102l28.077 19.654c-15.253 13.047-35.083 20.938-56.75 20.938-48.17 0-87.217-38.94-87.217-86.97 0-48.023 39.048-86.96 87.217-86.96 48.16 0 87.21 38.937 87.21 86.96 0 12.537-2.662 24.433-7.448 35.198 12.402 8.767 24.306 17.68 36.995 26.652-6.38 12.385-14.645 23.644-24.416 33.394-24.18 24.102-57.6 39.006-94.513 39.006-36.907 0-70.334-14.913-94.512-39.007-24.163-24.112-39.12-57.44-39.12-94.244" fill="#4168df" fill-rule="nonzero"/><path d="M150 149.7l59.946 93.516c33.086 0 59.947-41.903 59.947-93.516 0-51.613-26.86-93.516-59.947-93.516L150 149.7z" fill="#3e66de"/></svg>