<svg viewBox="0 0 150 150" xmlns="http://www.w3.org/2000/svg" fill-rule="evenodd" clip-rule="evenodd" stroke-linejoin="round" stroke-miterlimit="1.414"><g fill="#0200ff"><path d="M82.86 56.64h-1.31c-.066 0-.132.016-.192.05l-2.48 1.416c-.166.095-.25.298-.203.492l.296 1.25c.032.13.12.238.234.292.115.054.248.05.358-.015l1.407-.812v9.88c0 .242.182.436.406.436h1.484c.227 0 .41-.195.41-.437V57.075c0-.24-.183-.436-.41-.436zM81.832 34.06c-2.688 0-4.358 2.58-4.358 6.74.036 4.108 1.63 6.66 4.164 6.66 2.768 0 4.357-2.49 4.357-6.832 0-4.113-1.557-6.57-4.163-6.57zm-.107 11.26c-1.17 0-1.896-1.727-1.896-4.505 0-2.806.75-4.62 1.914-4.62 1.65 0 1.896 2.825 1.896 4.507 0 1.725-.247 4.617-1.915 4.617zM90.792 56.434c-2.686 0-4.355 2.58-4.355 6.74.035 4.11 1.63 6.66 4.164 6.66 2.768 0 4.356-2.49 4.356-6.83 0-4.114-1.557-6.57-4.164-6.57zm-.103 11.26c-1.174 0-1.9-1.725-1.9-4.504 0-2.806.75-4.617 1.915-4.617 1.652 0 1.9 2.822 1.9 4.504 0 1.726-.25 4.618-1.916 4.618zM72.867 56.434c-2.687 0-4.356 2.58-4.356 6.74.037 4.11 1.633 6.66 4.165 6.66 2.77 0 4.356-2.49 4.356-6.83 0-4.114-1.555-6.57-4.163-6.57zm-.105 11.26c-1.17 0-1.897-1.725-1.897-4.504 0-2.806.752-4.617 1.916-4.617 1.652 0 1.898 2.822 1.898 4.504 0 1.726-.25 4.618-1.916 4.618zM55.973 34.262h-1.31c-.067 0-.132.018-.19.052L51.99 35.73c-.165.096-.248.3-.204.492l.297 1.25c.032.13.117.24.232.292.116.053.248.05.358-.015l1.407-.81v9.878c0 .24.183.436.408.436h1.485c.227 0 .41-.195.41-.436V34.7c0-.242-.183-.438-.41-.438zM100.786 56.64h-1.31c-.068 0-.133.016-.192.05l-2.48 1.416c-.166.095-.25.298-.205.492l.296 1.25c.032.13.116.238.232.292.115.054.248.05.358-.015l1.407-.81v9.878c0 .242.182.436.407.436h1.486c.226 0 .408-.195.408-.437V57.075c0-.24-.182-.436-.408-.436zM64.935 34.262h-1.31c-.066 0-.133.018-.192.052l-2.48 1.417c-.166.096-.25.3-.203.492l.296 1.25c.03.13.117.24.232.292.115.053.247.05.358-.015l1.407-.81v9.878c0 .24.182.436.41.436h1.482c.226 0 .41-.195.41-.436V34.7c0-.242-.184-.438-.41-.438zM70.01 37.473c.03.13.114.238.23.29.114.054.247.05.358-.014l1.407-.81v9.878c0 .24.183.436.408.436H73.9c.224 0 .407-.195.407-.436V34.7c0-.242-.183-.438-.408-.438h-1.312c-.067 0-.133.018-.192.052l-2.482 1.417c-.164.096-.248.3-.203.492l.3 1.25zM90.792 34.06c-2.686 0-4.355 2.58-4.355 6.74.035 4.108 1.63 6.66 4.164 6.66 2.768 0 4.356-2.49 4.356-6.832 0-4.113-1.557-6.57-4.164-6.57zm-.103 11.26c-1.174 0-1.9-1.727-1.9-4.505 0-2.806.75-4.62 1.915-4.62 1.652 0 1.9 2.825 1.9 4.507 0 1.725-.25 4.617-1.916 4.617zM109.748 56.64h-1.31c-.067 0-.134.016-.193.05l-2.48 1.416c-.167.096-.25.298-.203.492l.296 1.25c.03.13.118.238.233.29.116.055.247.05.358-.013l1.407-.812v9.88c0 .24.183.436.408.436h1.484c.226 0 .41-.196.41-.437V57.075c0-.24-.183-.436-.41-.436z"/><path d="M125.36 21.642C114.847 7.686 99.655 0 82.585 0c-12.21 0-24.462 4.08-34.5 11.486C37.354 19.404 29.84 30.433 26.36 43.38c-1.375 5.118-2.083 9.366-2.71 13.115-1.293 7.77-2.23 13.38-7.988 22.447-1.528 2.405-2.016 4.705-1.452 6.836.893 3.37 3.92 4.83 6.352 6 .81.392 2.17 1.047 2.477 1.41 1.46 1.955 1.334 7.37 1.22 12.148-.16 6.818-.327 13.868 2.844 18.957 4.436 7.115 11.296 7.192 16.808 7.254 6.467.073 9.417.107 10.09 7.796.014.19.042 1.012.066 1.737.173 5.068.248 5.757.492 6.496.48 1.453 1.765 2.424 3.208 2.424h60.647c1.17 0 2.258-.642 2.88-1.7.623-1.06.69-2.384.182-3.51-7.645-16.895-1.386-34.237 5.24-52.597 4.028-11.16 8.194-22.697 9.14-34.376 1.095-13.515-2.34-25.348-10.496-36.175zm-27.403-5.48c1.224.507 2.426 1.07 3.6 1.68.007.17.008.33.008.485 0 1.725-.248 4.617-1.915 4.617-1.17 0-1.897-1.726-1.897-4.504 0-.862.07-1.63.204-2.278zm-16.213-2.34c1.65 0 1.896 2.823 1.896 4.504 0 1.725-.248 4.617-1.915 4.617-1.17 0-1.896-1.726-1.896-4.504 0-2.806.75-4.62 1.914-4.62zm-19.806 3.595l.28-.16c1.044-.6 2.12-1.136 3.22-1.616.223.877.278 1.904.278 2.686 0 1.725-.25 4.617-1.915 4.617-1.17 0-1.897-1.726-1.897-4.504 0-.36.01-.7.035-1.023zM53.27 60.395c.327-1.152.88-1.822 1.586-1.822.822 0 1.296.7 1.564 1.612-1 .04-2.065.16-3.15.21zm66.18 3.387c-.11.06-.218.105-.33.144v-6.85c0-.242-.184-.437-.408-.437h-1.31c-.068 0-.135.016-.194.05l-2.48 1.417c-.165.095-.25.297-.204.492l.298 1.25c.03.128.115.236.23.29.116.054.25.05.36-.014l1.406-.812v4.752c-.744.025-1.364.237-1.634 1.287-.496 2.336-1.517 4.37-3.064 6.098-3.425 3.405-14.368 2.707-14.368 2.707s-.718.55-.295 5.953l-.654.373c-.165.095-.25.297-.204.492l.296 1.25c.032.13.116.237.232.29.115.054.248.05.358-.014l.188-.11c.017.167.036.332.057.503.42 3.628-2.2 4.726-5.5 3.383V79.45c0-.24-.18-.435-.406-.435h-1.31c-.067 0-.135.017-.194.05l-2.48 1.418c-.165.095-.25.297-.202.492l.297 1.25c.03.13.116.237.23.29.116.054.247.05.358-.014l1.407-.81V85c-3.426-2.398-6.995-7.135-8.46-14.134-.767-3.674-6.984 2.627-10.898 1.412-2.856-.884-4.81-1.345-6.197-2.648h.56c.227 0 .41-.195.41-.436V57.076c0-.24-.183-.436-.41-.436h-1.31c-.065 0-.132.017-.192.05l-2.48 1.418c-.166.095-.25.297-.202.492l.297 1.25c.03.13.116.237.232.29.114.055.245.05.356-.013l1.407-.812v8.435c-.414-.867-.755-1.953-1.044-3.35-.53-2.574-1.67-3.636-3.15-4.026-.543-2.505-1.918-3.938-3.906-3.938-2.006 0-3.443 1.438-4.044 3.895-1.204-.153-2.388-.538-3.48-1.363v-1.89c0-.24-.183-.436-.408-.436h-1.31c-.068 0-.134.018-.194.052l-.104.06c-2.316-3.457-3.684-9.08-3.477-13.218.576 2.475 1.952 3.927 3.862 3.927 2.767 0 4.355-2.49 4.355-6.83 0-4.113-1.557-6.57-4.164-6.57-.558 0-1.07.118-1.534.332 2.245-5.196 5.42-8.767 9.635-11.935v1.986c0 .24.184.436.41.436h1.484c.226 0 .41-.196.41-.437V20.83c1.007-.676 2.066-1.344 3.18-2.014.13 3.875 1.7 6.27 4.15 6.27 2.768 0 4.357-2.49 4.357-6.83 0-1.342-.167-2.504-.48-3.464.72-.257 1.446-.49 2.18-.702l.24 1.01c.032.128.116.237.23.29.116.054.25.05.36-.015l1.407-.81v9.878c0 .24.182.436.407.436H73.9c.226 0 .408-.196.408-.437V13.1c1.663-.258 3.35-.408 5.05-.454-1.197 1.107-1.883 3.117-1.883 5.777.037 4.11 1.632 6.66 4.164 6.66 2.768 0 4.356-2.49 4.356-6.83 0-2.477-.567-4.347-1.585-5.446 1.196.106 2.39.262 3.578.466l-.147.082c-.164.096-.248.298-.2.49l.296 1.252c.03.13.116.238.23.29.116.055.247.05.358-.014l1.407-.81v9.88c0 .24.184.435.41.435h1.485c.224 0 .407-.195.407-.436V14.207c1.197.323 2.382.7 3.552 1.116-.25.897-.385 1.933-.385 3.1.035 4.11 1.632 6.66 4.163 6.66 2.575 0 4.125-2.154 4.33-5.944 1.372.814 2.693 1.705 3.963 2.663v2.64c0 .24.183.435.41.435h1.482c.226 0 .41-.195.41-.436v-.773c3.424 2.98 6.343 6.512 8.523 10.525-.312-.088-.645-.136-1-.136-2.686 0-4.355 2.58-4.355 6.74.035 4.108 1.632 6.66 4.164 6.66 2.355 0 3.852-1.81 4.247-5.022 1.946 7.756 2.884 18.527-2.288 21.344zM43.976 40.815c0-2.806.752-4.62 1.916-4.62 1.652 0 1.898 2.825 1.898 4.507 0 1.725-.25 4.617-1.914 4.617-1.172 0-1.9-1.727-1.9-4.505zm75.514-.113c0 1.725-.25 4.618-1.915 4.618-1.17 0-1.898-1.726-1.898-4.504 0-2.806.752-4.62 1.915-4.62 1.652 0 1.9 2.824 1.9 4.506z"/><path d="M109.748 34.262h-1.31c-.067 0-.134.018-.193.052l-2.48 1.417c-.167.096-.25.3-.203.492l.296 1.25c.03.13.118.24.233.292.116.053.247.05.358-.015l1.407-.81v9.878c0 .24.183.436.408.436h1.484c.226 0 .41-.195.41-.436V34.7c0-.242-.183-.438-.41-.438zM99.755 34.06c-2.688 0-4.357 2.58-4.357 6.74.036 4.108 1.633 6.66 4.164 6.66 2.77 0 4.357-2.49 4.357-6.832 0-4.113-1.557-6.57-4.165-6.57zm-.105 11.26c-1.17 0-1.898-1.727-1.898-4.505 0-2.806.753-4.62 1.916-4.62 1.65 0 1.897 2.825 1.897 4.507 0 1.725-.248 4.617-1.915 4.617z"/></g></svg>