<svg viewBox="0 0 150 150" xmlns="http://www.w3.org/2000/svg" fill-rule="evenodd" clip-rule="evenodd" stroke-linejoin="round" stroke-miterlimit="1.414"><g fill="#0200ff" fill-rule="nonzero">
<path d="M47.07 119.55h.533v-6.272c-23.38-2.365-41.754-23.69-41.754-49.57 0-27.467 20.665-49.8 46.07-49.8 25.098 0 45.53 21.804 46.025 48.815h5.848c-.5-30.48-23.55-55.137-51.873-55.137C23.29 7.586 0 32.762 0 63.71c0 29.183 20.708 53.193 47.06 55.85l.01-.01z"/>
<path d="M52.576 42.12c2.594.066 5.182.235 7.77.49.964 6.675 1.355 13.392 1.235 20.113h5.84c.083-6.553-.547-13.122-1.943-19.5 2.937.41 5.88.945 8.812 1.57 2.78.574 5.556 1.267 8.332 1.993 1.052 5.22 1.432 10.527 1.203 15.86 0 .02-.005.05-.005.072h5.85c.186-4.808-.256-9.66-1.345-14.333 2.536.743 5.078 1.52 7.635 2.308-2.698-2-5.53-3.783-8.463-5.382-.47-1.56-.995-3.084-1.615-4.576-2.86-6.908-7.24-12.91-12.598-17.368 3.547 6.193 6.484 12.465 8.286 19.03-2.015-.896-4.057-1.7-6.14-2.44-3.787-1.294-7.672-2.307-11.61-3.016-1.025-3.328-2.254-6.57-3.74-9.667-.89-1.846-1.837-3.636-2.92-5.36-1.068-1.705-2.204-3.382-3.532-4.87 1.552 3.75 2.755 7.55 3.797 11.38.703 2.61 1.307 5.218 1.828 7.852-2.172-.253-4.354-.422-6.546-.473-4.51-.123-9.047.21-13.516.963.564-3 1.246-5.973 2.048-8.934 1.042-3.833 2.245-7.633 3.792-11.37-1.323 1.474-2.46 3.146-3.526 4.852-1.078 1.722-2.03 3.524-2.917 5.36-1.698 3.54-3.073 7.26-4.172 11.084-1.546.388-3.093.81-4.614 1.312-2.87.94-5.676 2.088-8.384 3.445 1.812-6.39 4.682-12.515 8.135-18.54-5.363 4.45-9.738 10.478-12.597 17.37-.646 1.547-1.193 3.146-1.672 4.767-.374.265-.765.513-1.14.772-1.578 1.148-3.13 2.375-4.5 3.816 1.65-.8 3.313-1.508 4.995-2.16-1.188 4.885-1.682 9.986-1.458 15.002.198 4.836 1.01 9.576 2.286 14.153-2.213-.805-4.417-1.712-6.6-2.76 1.38 1.437 2.928 2.658 4.506 3.824.984.71 2.004 1.368 3.036 2.004.515 1.538 1.067 3.04 1.682 4.533 1.41 3.394 3.062 6.632 4.963 9.688.96 1.527 1.954 3.013 3.038 4.432 1.078 1.413 2.203 2.804 3.458 4.048-2.807-6.44-5.167-12.898-7.016-19.434 2.115.968 4.282 1.824 6.495 2.545 2.068.682 4.177 1.245 6.29 1.712 2.335 7.64 5.533 14.913 9.704 21.494-1.834-6.936-3.59-13.77-4.943-20.62 2.494.353 5 .522 7.51.618v-6.266c-2.87-.045-5.74-.157-8.6-.45-1.087-6.71-1.754-13.444-1.91-20.188-.156-6.722.208-13.444 1.13-20.115 4.786-.563 9.578-.777 14.37-.636zM30.114 81.756c-2.922-.563-5.823-1.283-8.714-2.122-1.29-5.42-2.145-10.9-2.38-16.377-.245-5.624.198-11.237 1.386-16.737 3.468-1.074 6.952-1.97 10.468-2.64.708-.134 1.422-.27 2.13-.382-1.323 6.39-1.906 12.965-1.755 19.524.134 6.54 1.01 13.044 2.494 19.36-1.21-.19-2.422-.388-3.63-.625z"/>
<path d="M140.953 118.243V65.837H51.26v52.406h89.693zm-86.84-27.366V69.845h83.98v44.4h-83.98V90.878zM42.92 144.264h105.632l.78-2.81h-107.4l.988 2.81zM144.334 122.662H49.17l-7.23 17.334h107.805l.255-.946-5.666-16.388zM87.32 139.248l1.708-5.55h10.51l2.02 5.55H87.32zm-38.197-6.475l3.542-8.1h86.627l3.042 8.1h-93.21z"/></g></svg>